<svg fill="currentColor" id="Capa_2_copia" data-name="Capa 2 copia" xmlns="http://www.w3.org/2000/svg" viewBox="0 0 1300.9 452.63"><path d="M233,401.09l.08-6.46c0-3.32,0-6.65,0-9.91v-6.67c-24.15-6.84-38.08-26.34-37.89-54.13.23-36.5.22-73.65.2-109.57q0-9.73,0-19.46a123.43,123.43,0,0,0-8.94,8.63l-31.12-29.07c.16-.55.32-1.09.44-1.66A21.8,21.8,0,1,0,142,188.61l32.24,30.12a121.27,121.27,0,0,0-20.36,58.43l-40.3,0c-.25-.51-.51-1-.81-1.51a21.78,21.78,0,1,0,.8,20.89l40.32,0A121.36,121.36,0,0,0,167.25,343l-35.91,25.42c-.5-.27-1-.53-1.53-.77a21.81,21.81,0,1,0,12.73,16.58l35-24.78a123.08,123.08,0,0,0,30.08,28.67l-27.09,44.15c-.56,0-1.13-.09-1.71-.1a21.8,21.8,0,1,0,18.23,10.23l27.49-44.8C227.29,398.87,230.1,400,233,401.09Z" transform="translate(-72.38 -45.21)"/><path d="M307.76,168.68c6.53,1.55,8.86,3.06,14.94,5.62a121.22,121.22,0,0,1,23.58,13.15l27.16-43.4c-.3-.49-.59-1-.85-1.49a21.79,21.79,0,1,1,17.27,11.77l-28.61,45.73a122.35,122.35,0,0,1,21.45,28.52l23.59-13.73c0-.57-.07-1.14-.06-1.72A21.81,21.81,0,1,1,416,231.59L390.61,246.4a121.56,121.56,0,0,1,6.55,31.93l37.13,0c.25-.51.51-1,.81-1.51a21.78,21.78,0,1,1-.8,20.89l-37.34,0a121.08,121.08,0,0,1-14.31,47.34l38.63,27.35c.51-.27,1-.54,1.54-.77a21.81,21.81,0,1,1-12.74,16.58l-38-26.92a122.71,122.71,0,0,1-32.13,29l20.39,33.71c.57-.05,1.14-.09,1.71-.09a21.79,21.79,0,1,1-18.29,10.11l-21.05-34.8a121.47,121.47,0,0,1-36.09,9l-10.16-57.17,33.09-6.27,6.94-14,4.74-30.65Z" transform="translate(-72.38 -45.21)"/><path d="M290.78,393.42c0-4,0-8,0-12Q290.77,387.4,290.78,393.42Z" transform="translate(-72.38 -45.21)"/><path d="M295.5,361.44c-4,.39-4.84,1.56-4.79,5.22,0,1.55,0,3.09,0,4.63.21-2.59,1.3-3.51,4.76-3.85,18.79-1.81,30.74-11.43,32.84-30.62v-6C326.24,350,314.29,359.63,295.5,361.44Z" transform="translate(-72.38 -45.21)"/><path d="M348.58,137.67c0-6.8-2-10.46-4.43-12.42a9,9,0,0,0-6.4-2.23l-.66,0h0c-12.95,0-25.91-.4-38.84.07h-4.37c-4.47-.41-5-2.71-5.1-8.06l-.05-25.11c0-6.27.94-7.22,5.8-7.52,1.14,0,2.47.06,4,.06,2.8,0,5.26,0,7.44-.15h4.66c10.65-.06,12.62-3.39,12.61-13.12,0-4,0-8.11,0-12.16,0-7.21-3.7-11.6-11-11.65q-20.43-.16-40.86-.15t-40.86.15c-7.28,0-11,4.44-11,11.65,0,4.05,0,8.11,0,12.16,0,9.73,2,13.06,12.61,13.12l13.75,0c7,.25,8.22.44,8.19,7.63L254,115c-.1,5.35-.63,7.65-5.09,8.06h-4.37c-12.93-.47-25.9,0-38.85-.07h0l-.66,0a9,9,0,0,0-6.4,2.23c-2.42,2-4.43,5.62-4.43,12.42,0,11.23,2.56,16.31,10.36,17.18a8.15,8.15,0,0,0,2.61.15h0c6.54,0,7.08,2.73,7.11,6.59,0,.64,0,1.29,0,1.95h0c-.05,53.5.14,107-.21,160.51-.15,23.73,12.29,35.38,33.18,37.39,4,.39,4.84,1.56,4.79,5.22-.17,11.83,0,23.66-.13,35.48l0,0c0,1.4,0,2.8-.05,4.2-.13,5.88,1.56,10.95,6.43,13.77,3.69,2.14,3.5,4.78,3.5,7.93l-.28,57.12a19.47,19.47,0,0,0,.88,6,8.41,8.41,0,0,0,3.67,5.23l0,0,0,0,.21.11c.12.07.24.14.37.2a8.1,8.1,0,0,0,1.57.65h0l.52.13a8.17,8.17,0,0,0,.91.17l.25,0a15.9,15.9,0,0,0,2.76,0l.26,0a8.62,8.62,0,0,0,.91-.17l.52-.13h0a8.1,8.1,0,0,0,1.57-.65c.13-.06.25-.13.37-.2l.21-.11,0,0,0,0a8.41,8.41,0,0,0,3.67-5.23,19.18,19.18,0,0,0,.87-6L281,428.08c0-3.15-.2-5.79,3.5-7.93,4.87-2.82,6.56-7.89,6.43-13.77,0-1.4,0-2.8-.05-4.2.09-.05.06-.18-.05-.36-.15-11.72.05-23.44-.12-35.16,0-3.66.78-4.83,4.79-5.22,18.79-1.81,30.74-11.43,32.84-30.62l.17-167.28c0-.66,0-1.31-.05-1.95,0-3.86.56-6.6,7.11-6.59h0a8.09,8.09,0,0,0,2.6-.15C346,154,348.58,148.9,348.58,137.67Zm-69.49,125,19.46,0c4.11-.2,5.58.83,5.53,5.28l0,56.1-65.17.16c.33-27.27,0-162.84,0-162.84,0-5.08.92-7.06,6.55-6.95,8.35.17,16.7.22,25.05.21h1.84c8.35,0,16.7,0,25.05-.21,5.63-.11,6.6,1.87,6.56,6.95v22.87c.12,3.83-.89,5.64-4.87,5.47-6.74-.29-13.51-.2-20.27,0-7.45.22-12.12,5-12.15,12.09,0,6.89,4.46,11.86,11.83,12.15l20.54,0c3.85-.17,4.92,1,5.07,4.91l.12,11.41c.07,3.89.85,8.33-4.83,8l-19.83,0c-9,.07-12.65,3.14-12.87,10.65C266.44,256.92,269.51,262.65,279.09,262.64Z" transform="translate(-72.38 -45.21)"/><path d="M574.84,251.61q2.31-11.51,7-19a29.33,29.33,0,0,1,11.85-11A37.15,37.15,0,0,1,610.38,218q13.07,0,21,4.09a25.76,25.76,0,0,1,11.71,12.05q3.81,8,4.36,19.54h44.25a84.67,84.67,0,0,0-11.5-36.36,67.09,67.09,0,0,0-27-25.05q-17.43-9.12-42.76-9.13a84,84,0,0,0-34,6.68,73.1,73.1,0,0,0-26.15,19.2,87.29,87.29,0,0,0-16.75,30.23q-5.85,17.7-5.85,39.89V291.3q0,22.2,5.65,39.83a85.67,85.67,0,0,0,16.34,30.09,71.2,71.2,0,0,0,26.08,19.14Q591,387,610.52,387q24.36,0,42.07-8.78a68.06,68.06,0,0,0,27.71-24.38q10-15.58,11.1-36H647.28q-.67,11.58-4.9,19.2a26.56,26.56,0,0,1-12.12,11.38q-7.9,3.74-19.74,3.74-10.35,0-17.57-3.68a29.23,29.23,0,0,1-11.78-11.16q-4.56-7.49-6.6-18.93a156.52,156.52,0,0,1-2-27.1V278.91A140.47,140.47,0,0,1,574.84,251.61Z" transform="translate(-72.38 -45.21)"/><path d="M844,255.63a62,62,0,0,0-22.13-15.73q-13.14-5.66-30.3-5.65-16.89,0-30,5.65a62.16,62.16,0,0,0-22.05,15.73,67.67,67.67,0,0,0-13.62,23.76,92.61,92.61,0,0,0-4.63,29.89v2.86a92.18,92.18,0,0,0,4.63,29.75,68.43,68.43,0,0,0,13.62,23.83,60.86,60.86,0,0,0,22.19,15.73Q774.95,387,791.82,387t30.1-5.58A61.22,61.22,0,0,0,844,365.72a68.57,68.57,0,0,0,13.61-23.83,92.18,92.18,0,0,0,4.63-29.75v-2.86a92.61,92.61,0,0,0-4.63-29.89A67.81,67.81,0,0,0,844,255.63ZM819.6,312.14a88.12,88.12,0,0,1-1.43,16.34,42.37,42.37,0,0,1-4.7,13.34,24.1,24.1,0,0,1-8.57,8.92,25,25,0,0,1-13.08,3.2,25.33,25.33,0,0,1-13.14-3.2,24,24,0,0,1-8.64-8.92,42.37,42.37,0,0,1-4.7-13.34,89,89,0,0,1-1.43-16.34v-2.86a87.09,87.09,0,0,1,1.43-16.14,44,44,0,0,1,4.7-13.41,23,23,0,0,1,21.51-12.39,25.23,25.23,0,0,1,13.28,3.26,24.28,24.28,0,0,1,8.64,9.13,44,44,0,0,1,4.7,13.41,86.24,86.24,0,0,1,1.43,16.14Z" transform="translate(-72.38 -45.21)"/><path d="M1012.46,246.84a36.47,36.47,0,0,0-14.77-9.6,57.29,57.29,0,0,0-18.93-3,54.68,54.68,0,0,0-23.35,4.9,50.31,50.31,0,0,0-18.11,14.23c-.24.29-.46.6-.69.9L935.18,237h-40V384.31h42.62V279.92c.31-.53.62-1.05,1-1.55a24.42,24.42,0,0,1,8.71-8.11,26.18,26.18,0,0,1,12.8-2.92,31.72,31.72,0,0,1,12,2,14.55,14.55,0,0,1,7.56,7.08q2.58,5,2.59,14.3v93.55h42.75V290.89q0-15.79-3.27-26.62T1012.46,246.84Z" transform="translate(-72.38 -45.21)"/><polygon points="1047.12 288.52 1021.86 191.76 977.07 191.76 1025.95 339.1 1041.47 339.1 1052.78 339.1 1068.3 339.1 1117.18 191.76 1072.52 191.76 1047.12 288.52"/><path d="M1249.15,183.66q-6.62-5.92-17.23-5.92t-17.15,5.92a20.74,20.74,0,0,0,0,30.23q6.52,5.93,17.15,5.92t17.23-5.92a20.61,20.61,0,0,0,0-30.23Z" transform="translate(-72.38 -45.21)"/><rect x="1138.43" y="191.76" width="42.62" height="147.33"/><path d="M1368.25,353.12a64.35,64.35,0,0,1-6.54.28,24.87,24.87,0,0,1-8.71-1.3,8.47,8.47,0,0,1-4.9-4.56q-1.5-3.27-1.5-9.4V266.79h24.78V237H1346.6V200.48H1304V237h-20v29.82h20v76.12q0,15.66,5.31,25.4a31.86,31.86,0,0,0,15.32,14.22q10,4.5,23.76,4.5a79.06,79.06,0,0,0,24.92-3.81V352.44C1371.74,352.71,1370.06,352.94,1368.25,353.12Z" transform="translate(-72.38 -45.21)"/></svg>